<?xml version="1.0" encoding="UTF-8" standalone="no"?>
<!-- Created with Inkscape (http://www.inkscape.org/) -->

<svg
   xmlns:dc="http://purl.org/dc/elements/1.1/"
   xmlns:cc="http://creativecommons.org/ns#"
   xmlns:rdf="http://www.w3.org/1999/02/22-rdf-syntax-ns#"
   xmlns:svg="http://www.w3.org/2000/svg"
   xmlns="http://www.w3.org/2000/svg"
   xmlns:sodipodi="http://sodipodi.sourceforge.net/DTD/sodipodi-0.dtd"
   xmlns:inkscape="http://www.inkscape.org/namespaces/inkscape"
   width="16"
   height="16"
   viewBox="0 0 4.2333333 4.2333335"
   version="1.1"
   id="svg8"
   sodipodi:docname="delete_cache.svg"
   inkscape:version="0.92.4 (5da689c313, 2019-01-14)"
   inkscape:export-filename="C:\Home\Development\fumingcube\icons\light\scalable\delete_cache.png"
   inkscape:export-xdpi="96"
   inkscape:export-ydpi="96">
  <defs
     id="defs2" />
  <sodipodi:namedview
     id="base"
     pagecolor="#ffffff"
     bordercolor="#666666"
     borderopacity="1.0"
     inkscape:pageopacity="0.0"
     inkscape:pageshadow="2"
     inkscape:zoom="1.979899"
     inkscape:cx="-161.27202"
     inkscape:cy="-0.71801053"
     inkscape:document-units="mm"
     inkscape:current-layer="layer1"
     showgrid="true"
     units="px"
     showguides="true"
     inkscape:window-width="1920"
     inkscape:window-height="1017"
     inkscape:window-x="-8"
     inkscape:window-y="-8"
     inkscape:window-maximized="1"
     viewbox-width="4.23"
     inkscape:pagecheckerboard="false"
     borderlayer="false"
     gridtolerance="10">
    <inkscape:grid
       type="xygrid"
       id="grid815"
       dotted="false" />
  </sodipodi:namedview>
  <metadata
     id="metadata5">
    <rdf:RDF>
      <cc:Work
         rdf:about="">
        <dc:format>image/svg+xml</dc:format>
        <dc:type
           rdf:resource="http://purl.org/dc/dcmitype/StillImage" />
        <dc:title />
      </cc:Work>
    </rdf:RDF>
  </metadata>
  <g
     inkscape:label="Layer 1"
     inkscape:groupmode="layer"
     id="layer1"
     transform="translate(0,-292.76664)">
    <path
       style="opacity:1;fill:none;fill-opacity:0.47448982;stroke:#404040;stroke-width:0.99898487;stroke-opacity:1"
       d="M 7.9997975 13.008239 A 5.0005071 4.9893464 0 0 1 7.8922006 13.009394 A 5.0005071 4.9893464 0 0 1 2.8916936 8.0200472 A 5.0005071 4.9893464 0 0 1 7.8922006 3.0307008 A 5.0005071 4.9893464 0 0 1 12.892708 8.0200472 L 12.892708 8.0200472 A 5.0005071 4.9893464 0 0 1 12.867726 8.5181507 "
       id="path10165"
       transform="matrix(0.26458333,0,0,0.26458333,0,292.76664)" />
    <path
       style="fill:#404040;fill-opacity:1;stroke-width:0.00389199"
       d="m 1.7372744,295.75933 c 0.0013,-0.004 0.077418,-0.21619 0.1691463,-0.47093 0.098288,-0.27295 0.1649919,-0.46357 0.1624287,-0.46416 -0.00239,-0.002 -0.083993,0.0129 -0.1813355,0.0299 -0.097343,0.0171 -0.1775709,0.0303 -0.1782849,0.0296 -0.00155,-0.002 0.3259539,-0.85928 0.3294614,-0.8628 0.00172,-0.002 0.3512476,-0.0147 0.3572375,-0.0132 3.485e-4,8e-5 -0.073757,0.12275 -0.1646492,0.27259 -0.1333856,0.2199 -0.1638835,0.27266 -0.15813,0.27357 0.00392,0.002 0.1269502,-0.0112 0.2733995,-0.0264 0.1464491,-0.0152 0.269465,-0.0271 0.2733689,-0.0265 0.00552,0.002 -0.091106,0.1405 -0.4331317,0.62581 -0.2421262,0.34356 -0.4428505,0.62818 -0.4460543,0.63244 l -0.00582,0.008 z"
       id="path8998"
       inkscape:connector-curvature="0" />
    <g
       id="g6271"
       style="stroke:#c00000;stroke-width:0.48888889;stroke-miterlimit:4;stroke-dasharray:none;stroke-opacity:1"
       transform="matrix(0.5625,0,0,0.5625,1.9347656,130.00363)">
      <path
         inkscape:connector-curvature="0"
         id="path4562"
         d="m 0.79374999,293.82497 2.11666661,2.11667"
         style="fill:none;stroke:#c00000;stroke-width:0.48888889;stroke-linecap:butt;stroke-linejoin:miter;stroke-miterlimit:4;stroke-dasharray:none;stroke-opacity:1" />
      <path
         inkscape:connector-curvature="0"
         id="path4572"
         d="M 0.79374999,295.94164 2.9104166,293.82497"
         style="fill:none;stroke:#c00000;stroke-width:0.48888889;stroke-linecap:butt;stroke-linejoin:miter;stroke-miterlimit:4;stroke-dasharray:none;stroke-opacity:1" />
    </g>
  </g>
</svg>
