<?xml version="1.0" encoding="UTF-8" standalone="no"?>
<!-- Created with Inkscape (http://www.inkscape.org/) -->

<svg
   xmlns:dc="http://purl.org/dc/elements/1.1/"
   xmlns:cc="http://creativecommons.org/ns#"
   xmlns:rdf="http://www.w3.org/1999/02/22-rdf-syntax-ns#"
   xmlns:svg="http://www.w3.org/2000/svg"
   xmlns="http://www.w3.org/2000/svg"
   xmlns:sodipodi="http://sodipodi.sourceforge.net/DTD/sodipodi-0.dtd"
   xmlns:inkscape="http://www.inkscape.org/namespaces/inkscape"
   width="16"
   height="16"
   viewBox="0 0 4.2333333 4.2333335"
   version="1.1"
   id="svg8"
   sodipodi:docname="clean.svg"
   inkscape:version="0.92.3 (2405546, 2018-03-11)"
   inkscape:export-filename="D:\Development\fumingcube\icons\dark\16x16\clean.png"
   inkscape:export-xdpi="96"
   inkscape:export-ydpi="96">
  <defs
     id="defs2" />
  <sodipodi:namedview
     id="base"
     pagecolor="#ffffff"
     bordercolor="#666666"
     borderopacity="1.0"
     inkscape:pageopacity="0.0"
     inkscape:pageshadow="2"
     inkscape:zoom="15.839192"
     inkscape:cx="-8.9443784"
     inkscape:cy="17.549379"
     inkscape:document-units="mm"
     inkscape:current-layer="layer1"
     showgrid="true"
     units="px"
     showguides="true"
     inkscape:window-width="1920"
     inkscape:window-height="1017"
     inkscape:window-x="1912"
     inkscape:window-y="-8"
     inkscape:window-maximized="1"
     viewbox-width="4.23"
     inkscape:pagecheckerboard="false"
     borderlayer="false"
     gridtolerance="5">
    <inkscape:grid
       type="xygrid"
       id="grid815"
       dotted="false" />
  </sodipodi:namedview>
  <metadata
     id="metadata5">
    <rdf:RDF>
      <cc:Work
         rdf:about="">
        <dc:format>image/svg+xml</dc:format>
        <dc:type
           rdf:resource="http://purl.org/dc/dcmitype/StillImage" />
        <dc:title />
      </cc:Work>
    </rdf:RDF>
  </metadata>
  <g
     inkscape:label="Layer 1"
     inkscape:groupmode="layer"
     id="layer1"
     transform="translate(0,-292.76664)">
    <path
       style="opacity:1;fill:#808080;fill-opacity:1;stroke:none;stroke-width:0.01183036;stroke-linecap:round;stroke-linejoin:miter;stroke-miterlimit:4;stroke-dasharray:none;stroke-opacity:1;paint-order:stroke fill markers"
       d="m 1.091742,295.45672 c -0.31152158,-0.31157 -0.5639771,-0.56916 -0.56101223,-0.57243 0.002965,-0.003 0.2604716,-0.26128 0.57223723,-0.57336 l 0.5668464,-0.56743 0.088649,0.0886 0.088649,0.0887 -0.4812547,0.48126 -0.48125479,0.48125 0.48113619,0.48125 0.4811362,0.48124 -0.088117,0.0887 c -0.048464,0.0488 -0.090929,0.0887 -0.094365,0.0887 -0.00344,0 -0.2611289,-0.25492 -0.5726506,-0.5665 z"
       id="path2657"
       inkscape:connector-curvature="0" />
    <path
       style="opacity:1;fill:#808080;fill-opacity:1;stroke:none;stroke-width:0.01183036;stroke-linecap:round;stroke-linejoin:miter;stroke-miterlimit:4;stroke-dasharray:none;stroke-opacity:1;paint-order:stroke fill markers"
       d="m 2.4757478,295.93447 -0.088242,-0.0888 0.4811362,-0.48124 0.4811363,-0.48125 -0.4812549,-0.48125 -0.4812546,-0.48126 0.088602,-0.0886 0.088602,-0.0886 0.5698469,0.56994 0.5698472,0.56994 -0.5700885,0.56999 -0.5700882,0.57 z"
       id="path2659"
       inkscape:connector-curvature="0" />
    <path
       style="fill:#808080;fill-opacity:1;stroke:none;stroke-width:0.26458332px;stroke-linecap:butt;stroke-linejoin:miter;stroke-opacity:1"
       d="m 1.3229167,294.88331 c 0,0 0.7937499,0 0.7937499,-0.79375 l 1e-7,0 -1e-7,0 c 0,0 0,0.79375 0.79375,0.79375 l 10e-8,0 -10e-8,0 c 0,0 -0.79375,0 -0.79375,0.79375 l 1e-7,0 -1e-7,0 c 0,0 0,-0.79375 -0.7937499,-0.79375 z"
       id="path2669"
       inkscape:connector-curvature="0"
       sodipodi:nodetypes="csccsccsccc" />
  </g>
</svg>
