<?xml version="1.0" encoding="UTF-8" standalone="no"?>
<!-- Created with Inkscape (http://www.inkscape.org/) -->

<svg
   xmlns:dc="http://purl.org/dc/elements/1.1/"
   xmlns:cc="http://creativecommons.org/ns#"
   xmlns:rdf="http://www.w3.org/1999/02/22-rdf-syntax-ns#"
   xmlns:svg="http://www.w3.org/2000/svg"
   xmlns="http://www.w3.org/2000/svg"
   xmlns:sodipodi="http://sodipodi.sourceforge.net/DTD/sodipodi-0.dtd"
   xmlns:inkscape="http://www.inkscape.org/namespaces/inkscape"
   width="16"
   height="16"
   viewBox="0 0 4.2333333 4.2333335"
   version="1.1"
   id="svg8"
   sodipodi:docname="colour.svg"
   inkscape:version="0.92.3 (2405546, 2018-03-11)"
   inkscape:export-filename="D:\Development\fumingcube\icons\dark\16x16\colour.png"
   inkscape:export-xdpi="96"
   inkscape:export-ydpi="96">
  <defs
     id="defs2" />
  <sodipodi:namedview
     id="base"
     pagecolor="#ffffff"
     bordercolor="#666666"
     borderopacity="1.0"
     inkscape:pageopacity="0.0"
     inkscape:pageshadow="2"
     inkscape:zoom="32"
     inkscape:cx="1.0976902"
     inkscape:cy="10.536051"
     inkscape:document-units="mm"
     inkscape:current-layer="layer1"
     showgrid="true"
     units="px"
     showguides="false"
     inkscape:window-width="1920"
     inkscape:window-height="1017"
     inkscape:window-x="1912"
     inkscape:window-y="-8"
     inkscape:window-maximized="1"
     viewbox-width="4.23"
     inkscape:pagecheckerboard="false"
     borderlayer="false"
     gridtolerance="10">
    <inkscape:grid
       type="xygrid"
       id="grid815"
       dotted="false" />
  </sodipodi:namedview>
  <metadata
     id="metadata5">
    <rdf:RDF>
      <cc:Work
         rdf:about="">
        <dc:format>image/svg+xml</dc:format>
        <dc:type
           rdf:resource="http://purl.org/dc/dcmitype/StillImage" />
        <dc:title />
      </cc:Work>
    </rdf:RDF>
  </metadata>
  <g
     inkscape:label="Layer 1"
     inkscape:groupmode="layer"
     id="layer1"
     transform="translate(0,-292.76664)">
    <path
       style="opacity:1;fill:#808080;fill-opacity:1;stroke:none;stroke-width:0.00828125;stroke-linecap:round;stroke-linejoin:miter;stroke-miterlimit:4;stroke-dasharray:none;stroke-opacity:1;paint-order:stroke fill markers"
       d="m 3.0427086,293.51491 -0.3389974,0.33899 -0.3389974,0.339 -0.1054199,-0.10438 c -0.1132445,-0.11217 -0.1278077,-0.12299 -0.1674317,-0.12299 -0.059469,0 -0.099219,0.0419 -0.099219,0.10438 0,0.0389 1.29e-5,0.0393 0.1131714,0.15348 l 0.1131714,0.11421 -0.712618,0.71365 -0.712618,0.71313 v 0.22118 0.22066 h 0.2253095 0.2253093 l 0.7069335,-0.70694 c 0.3887936,-0.38881 0.7096847,-0.70693 0.7131349,-0.70693 0.00345,0 0.053669,0.0482 0.1116211,0.10697 0.08635,0.0876 0.1105712,0.10865 0.1353921,0.11265 0.037024,0.007 0.057526,4.5e-4 0.0894,-0.0263 0.02673,-0.0225 0.038725,-0.0634 0.029456,-0.10025 -0.00342,-0.0136 -0.049323,-0.0668 -0.1142047,-0.1323 l -0.1090375,-0.11007 0.3410646,-0.34054 0.3410643,-0.34107 -0.2232422,-0.22324 z m -0.7942668,1.15807 0.041858,0.0408 0.041341,0.0413 -0.4361491,0.43615 c -0.239944,0.23998 -0.43834,0.43615 -0.4408,0.43615 -0.00246,0 -0.022048,-0.0176 -0.043408,-0.0393 l -0.038757,-0.0393 0.4382162,-0.43821 z m -1.0583333,1.05833 0.041858,0.0408 0.041341,0.0408 -0.068213,0.0687 c -0.066338,0.0665 -0.069051,0.0682 -0.107487,0.0682 h -0.039274 v -0.0434 c 0,-0.0435 -3.139e-4,-0.044 0.065629,-0.10955 z"
       id="path2729"
       inkscape:connector-curvature="0" />
    <path
       style="opacity:1;fill:none;fill-opacity:1;stroke:none;stroke-width:0.01564961;stroke-linecap:round;stroke-linejoin:miter;stroke-miterlimit:4;stroke-dasharray:none;stroke-opacity:1;paint-order:stroke fill markers"
       d="M 3.4990761,12.652508 V 11.804835 L 6.1787636,9.1251815 C 7.6525917,7.6513721 8.8584511,6.438668 8.8584511,6.4302837 c 0,-0.00838 -0.1753858,-0.1912049 -0.3897463,-0.4062672 C 8.0506925,5.6046354 8.0156812,5.557716 8.0150442,5.4160568 8.0145489,5.3060247 8.0431401,5.2265246 8.1108828,5.1495647 8.1895333,5.0602132 8.2861355,5.015764 8.4012495,5.0159591 8.5615322,5.016231 8.6054264,5.0484216 9.0380623,5.4829796 l 0.3905488,0.3922837 1.2852409,-1.2851704 1.285242,-1.2851704 0.84762,0.8476207 0.847621,0.8476208 -1.288689,1.2887597 -1.288688,1.2887595 0.40773,0.410468 c 0.372049,0.3745464 0.410133,0.4178254 0.435181,0.4945423 0.0475,0.1454759 0.0084,0.2968137 -0.103955,0.4024575 -0.111831,0.1051437 -0.234288,0.134632 -0.381809,0.091941 -0.08922,-0.02582 -0.105541,-0.039943 -0.502694,-0.4350543 L 10.560934,8.1336697 7.8776445,10.816926 5.1943547,13.500181 H 4.3467154 3.4990761 Z M 5.053805,12.25014 5.3034801,12.000098 5.1513197,11.847938 4.9991591,11.695777 4.7491176,11.945453 4.4990761,12.195128 v 0.152527 0.152526 H 4.651603 4.8041299 Z M 7.6552898,9.6486552 9.3036356,8.0002538 9.1513105,7.8479287 8.9989851,7.6956033 7.3468461,9.3477424 5.694707,10.999881 5.8426767,11.148469 c 0.081383,0.08172 0.1516367,0.148587 0.1561186,0.148587 0.00448,0 0.7499044,-0.74178 1.6564945,-1.6484008 z M 9.8309023,7.8242057 9.6554258,7.6482299 9.7607222,7.5429335 9.8660187,7.4376369 9.7138197,7.2854379 9.5616206,7.1332388 9.456324,7.2385354 9.3510276,7.3438318 9.1711456,7.1681816 c -0.098935,-0.096608 0.045077,0.051071 0.3200264,0.3281749 0.2749497,0.2771037 0.5033506,0.503825 0.5075577,0.503825 0.00421,0 -0.071315,-0.079189 -0.1678274,-0.1759758 z M 12.151336,4.8479542 11.999025,4.695643 11.061666,5.6329044 10.124306,6.570166 10.27638,6.7228126 10.428454,6.875459 11.36605,5.9378622 12.303647,5.0002654 Z"
       id="path2723"
       inkscape:connector-curvature="0"
       transform="matrix(0.26458333,0,0,0.26458333,0,292.76664)" />
    <path
       style="opacity:1;fill:none;fill-opacity:1;stroke:none;stroke-width:0.01564961;stroke-linecap:round;stroke-linejoin:miter;stroke-miterlimit:4;stroke-dasharray:none;stroke-opacity:1;paint-order:stroke fill markers"
       d="M 3.4990761,12.652508 V 11.804835 L 6.1787636,9.1251815 C 7.6525917,7.6513721 8.8584511,6.438668 8.8584511,6.4302837 c 0,-0.00838 -0.1753858,-0.1912049 -0.3897463,-0.4062672 C 8.0506925,5.6046354 8.0156812,5.557716 8.0150442,5.4160568 8.0145489,5.3060247 8.0431401,5.2265246 8.1108828,5.1495647 8.1895333,5.0602132 8.2861355,5.015764 8.4012495,5.0159591 8.5615322,5.016231 8.6054264,5.0484216 9.0380623,5.4829796 l 0.3905488,0.3922837 1.2852409,-1.2851704 1.285242,-1.2851704 0.84762,0.8476207 0.847621,0.8476208 -1.288689,1.2887597 -1.288688,1.2887595 0.40773,0.410468 c 0.372049,0.3745464 0.410133,0.4178254 0.435181,0.4945423 0.0475,0.1454759 0.0084,0.2968137 -0.103955,0.4024575 -0.111831,0.1051437 -0.234288,0.134632 -0.381809,0.091941 -0.08922,-0.02582 -0.105541,-0.039943 -0.502694,-0.4350543 L 10.560934,8.1336697 7.8776445,10.816926 5.1943547,13.500181 H 4.3467154 3.4990761 Z M 5.053805,12.25014 5.3034801,12.000098 5.1513197,11.847938 4.9991591,11.695777 4.7491176,11.945453 4.4990761,12.195128 v 0.152527 0.152526 H 4.651603 4.8041299 Z M 7.6552898,9.6486552 9.3036356,8.0002538 9.1513105,7.8479287 8.9989851,7.6956033 7.3468461,9.3477424 5.694707,10.999881 5.8426767,11.148469 c 0.081383,0.08172 0.1516367,0.148587 0.1561186,0.148587 0.00448,0 0.7499044,-0.74178 1.6564945,-1.6484008 z M 9.8309023,7.8242057 9.6554258,7.6482299 9.7607222,7.5429335 9.8660187,7.4376369 9.7138197,7.2854379 9.5616206,7.1332388 9.456324,7.2385354 9.3510276,7.3438318 9.1711456,7.1681816 c -0.098935,-0.096608 0.045077,0.051071 0.3200264,0.3281749 0.2749497,0.2771037 0.5033506,0.503825 0.5075577,0.503825 0.00421,0 -0.071315,-0.079189 -0.1678274,-0.1759758 z M 12.151336,4.8479542 11.999025,4.695643 11.061666,5.6329044 10.124306,6.570166 10.27638,6.7228126 10.428454,6.875459 11.36605,5.9378622 12.303647,5.0002654 Z"
       id="path2725"
       inkscape:connector-curvature="0"
       transform="matrix(0.26458333,0,0,0.26458333,0,292.76664)" />
    <path
       style="opacity:1;fill:none;fill-opacity:1;stroke:none;stroke-width:0.03129921;stroke-linecap:round;stroke-linejoin:miter;stroke-miterlimit:4;stroke-dasharray:none;stroke-opacity:1;paint-order:stroke fill markers"
       d="M 3.501073,12.659604 V 11.824906 L 6.1944107,9.127815 8.8877483,6.430724 8.4600358,5.9990715 C 8.0323499,5.5674462 8.032323,5.5674098 8.032323,5.4203857 c 0,-0.2363357 0.1507385,-0.3948344 0.3755025,-0.3948344 0.1497619,0 0.2044553,0.040127 0.6324641,0.4640212 l 0.3985919,0.3947597 1.2810585,-1.280773 1.281059,-1.280773 0.843826,0.8433918 0.843826,0.8433917 -1.288282,1.2885626 -1.288283,1.2885627 0.410691,0.4147538 c 0.245225,0.2476512 0.4194,0.4494553 0.432308,0.5008837 0.03505,0.1396525 -0.01014,0.2935513 -0.111156,0.3785506 -0.12047,0.1013691 -0.197826,0.1239613 -0.33776,0.098644 -0.09381,-0.016972 -0.186347,-0.09365 -0.512707,-0.4248431 -0.21903,-0.2222731 -0.408905,-0.4041331 -0.421944,-0.4041331 -0.01304,0 -1.225989,1.2023437 -2.695445,2.6718751 L 5.2043351,13.494301 H 4.3527041 3.501073 Z M 5.0567128,12.266823 5.3140976,12.008093 5.1573622,11.853715 5.0006268,11.699336 4.7508499,11.947648 C 4.5016154,12.195421 4.501073,12.196318 4.501073,12.360756 v 0.164795 h 0.1491275 c 0.1452701,0 0.1557849,-0.0067 0.4065123,-0.258728 z M 7.6657827,9.6577175 9.3146462,8.0086338 9.1573233,7.8536766 9.0000008,7.6987197 7.3447646,9.3537347 5.6895287,11.00875 5.8363136,11.157775 c 0.080732,0.08196 0.1543946,0.149026 0.1636952,0.149026 0.0093,0 0.7588989,-0.742088 1.6657739,-1.6490835 z M 9.836184,7.813861 9.6576268,7.6334206 9.7585312,7.5325163 9.8594358,7.4316116 9.7115993,7.283775 9.5637627,7.1359385 9.462858,7.2368431 9.3619537,7.3377475 9.1737008,7.1585163 c -0.103539,-0.098577 0.036582,0.049147 0.311381,0.3282765 0.2747984,0.2791297 0.5063894,0.5075085 0.5146465,0.5075085 0.00826,0 -0.065338,-0.081198 -0.1635443,-0.1804403 z m 2.312981,-2.9675207 -0.148308,-0.1483076 -0.936956,0.9365659 -0.936956,0.9365658 0.147377,0.1496278 0.147378,0.1496275 0.937886,-0.9378858 0.937886,-0.937886 z"
       id="path2727"
       inkscape:connector-curvature="0"
       transform="matrix(0.26458333,0,0,0.26458333,0,292.76664)" />
  </g>
</svg>
