<?xml version="1.0" encoding="UTF-8" standalone="no"?>
<!-- Created with Inkscape (http://www.inkscape.org/) -->

<svg
   xmlns:dc="http://purl.org/dc/elements/1.1/"
   xmlns:cc="http://creativecommons.org/ns#"
   xmlns:rdf="http://www.w3.org/1999/02/22-rdf-syntax-ns#"
   xmlns:svg="http://www.w3.org/2000/svg"
   xmlns="http://www.w3.org/2000/svg"
   xmlns:sodipodi="http://sodipodi.sourceforge.net/DTD/sodipodi-0.dtd"
   xmlns:inkscape="http://www.inkscape.org/namespaces/inkscape"
   width="16"
   height="16"
   viewBox="0 0 4.2333333 4.2333335"
   version="1.1"
   id="svg8"
   sodipodi:docname="extract.svg"
   inkscape:version="0.92.3 (2405546, 2018-03-11)"
   inkscape:export-filename="D:\Development\fumingcube\icons\dark\16x16\extract.png"
   inkscape:export-xdpi="96"
   inkscape:export-ydpi="96">
  <defs
     id="defs2" />
  <sodipodi:namedview
     id="base"
     pagecolor="#ffffff"
     bordercolor="#666666"
     borderopacity="1.0"
     inkscape:pageopacity="0.0"
     inkscape:pageshadow="2"
     inkscape:zoom="15.839192"
     inkscape:cx="-26.907289"
     inkscape:cy="13.180132"
     inkscape:document-units="mm"
     inkscape:current-layer="layer1"
     showgrid="true"
     units="px"
     showguides="true"
     inkscape:window-width="1920"
     inkscape:window-height="1017"
     inkscape:window-x="1912"
     inkscape:window-y="-8"
     inkscape:window-maximized="1"
     viewbox-width="4.23"
     inkscape:pagecheckerboard="false"
     borderlayer="false"
     gridtolerance="10">
    <inkscape:grid
       type="xygrid"
       id="grid815"
       dotted="false" />
  </sodipodi:namedview>
  <metadata
     id="metadata5">
    <rdf:RDF>
      <cc:Work
         rdf:about="">
        <dc:format>image/svg+xml</dc:format>
        <dc:type
           rdf:resource="http://purl.org/dc/dcmitype/StillImage" />
        <dc:title />
      </cc:Work>
    </rdf:RDF>
  </metadata>
  <g
     inkscape:label="Layer 1"
     inkscape:groupmode="layer"
     id="layer1"
     transform="translate(0,-292.76664)">
    <path
       style="opacity:1;fill:#00c0ba;fill-opacity:1;stroke:none;stroke-width:0.00835217;stroke-opacity:1"
       d="m 1.4298838,295.88277 c -0.3732378,-0.18692 -0.67861412,-0.3418 -0.67861412,-0.34418 0,-0.005 0.50814282,-0.19618 0.52050022,-0.19618 0.00409,0 0.016544,0.0244 0.027677,0.0543 0.011133,0.0299 0.029934,0.0799 0.041781,0.1111 l 0.021539,0.0568 0.3769499,0.18851 0.3769499,0.18852 0.371939,-0.18583 0.371939,-0.18582 0.053675,-0.1232 0.053675,-0.1232 0.06308,0.0273 c 0.1571728,0.068 0.4154062,0.18196 0.4302109,0.18987 0.013777,0.007 -0.089033,0.0615 -0.6556457,0.34533 -0.3695917,0.18512 -0.6776227,0.33658 -0.6845132,0.33658 -0.00689,0 -0.3179046,-0.15295 -0.6911422,-0.33987 z"
       id="path2653"
       inkscape:connector-curvature="0" />
    <path
       style="opacity:1;fill:#00c0ba;fill-opacity:1;stroke:none;stroke-width:0.00835217;stroke-opacity:1"
       d="m 1.4298368,295.35352 -0.68676931,-0.34407 0.26366131,-0.099 c 0.1450137,-0.0545 0.2666104,-0.0958 0.2702149,-0.0919 0.00361,0.004 0.024111,0.0543 0.04557,0.11182 l 0.039017,0.10464 0.3775682,0.18873 0.3775682,0.18873 0.3723145,-0.18619 0.3723144,-0.1862 0.052929,-0.12179 c 0.029111,-0.067 0.053932,-0.1218 0.055159,-0.1218 0.00371,0 0.5000456,0.21866 0.5032846,0.22172 0.00265,0.003 -1.3486183,0.68102 -1.3539529,0.67986 -0.00116,-2.6e-4 -0.3111546,-0.15529 -0.6888778,-0.34453 z"
       id="path2655"
       inkscape:connector-curvature="0" />
    <path
       style="opacity:1;fill:#c4c4c4;fill-opacity:1;stroke:none;stroke-width:0.01183036;stroke-linecap:round;stroke-linejoin:miter;stroke-miterlimit:4;stroke-dasharray:none;stroke-opacity:1;paint-order:stroke fill markers"
       d="m 1.819601,295.00142 c -0.1588842,-0.0802 -0.2984106,-0.15766 -0.3100586,-0.17205 -0.013298,-0.0164 -0.021178,-0.0458 -0.021178,-0.0789 0,-0.0426 0.00667,-0.0594 0.034527,-0.0873 0.054163,-0.0542 0.093407,-0.0475 0.2843907,0.0482 0.090777,0.0455 0.1704359,0.0827 0.177019,0.0827 0.00792,0 0.011969,-0.19208 0.011969,-0.56755 0,-0.63213 -0.00107,-0.6232 0.078574,-0.65647 0.051627,-0.0216 0.1101607,-0.006 0.1456648,0.0394 0.023132,0.0294 0.023808,0.0467 0.023808,0.60745 0,0.38198 0.00405,0.57718 0.011969,0.57718 0.00658,0 0.086242,-0.0372 0.1770189,-0.0827 0.2075311,-0.10396 0.2690406,-0.10865 0.3128892,-0.0239 0.024871,0.0481 0.022246,0.0978 -0.00714,0.13511 -0.01601,0.0204 -0.1304949,0.0845 -0.3188264,0.17877 -0.1616166,0.0809 -0.2978757,0.14678 -0.302798,0.14648 -0.00492,-2.9e-4 -0.1389459,-0.0662 -0.2978302,-0.14642 z"
       id="path2677"
       inkscape:connector-curvature="0" />
  </g>
</svg>
