<?xml version="1.0" encoding="UTF-8" standalone="no"?>
<!-- Created with Inkscape (http://www.inkscape.org/) -->

<svg
   xmlns:dc="http://purl.org/dc/elements/1.1/"
   xmlns:cc="http://creativecommons.org/ns#"
   xmlns:rdf="http://www.w3.org/1999/02/22-rdf-syntax-ns#"
   xmlns:svg="http://www.w3.org/2000/svg"
   xmlns="http://www.w3.org/2000/svg"
   xmlns:sodipodi="http://sodipodi.sourceforge.net/DTD/sodipodi-0.dtd"
   xmlns:inkscape="http://www.inkscape.org/namespaces/inkscape"
   width="16"
   height="16"
   viewBox="0 0 4.2333333 4.2333335"
   version="1.1"
   id="svg8"
   sodipodi:docname="right.svg"
   inkscape:version="0.92.3 (2405546, 2018-03-11)"
   inkscape:export-filename="D:\Development\fumingcube\icons\dark\16x16\right.png"
   inkscape:export-xdpi="96"
   inkscape:export-ydpi="96">
  <defs
     id="defs2" />
  <sodipodi:namedview
     id="base"
     pagecolor="#ffffff"
     bordercolor="#666666"
     borderopacity="1.0"
     inkscape:pageopacity="0.0"
     inkscape:pageshadow="2"
     inkscape:zoom="7.919596"
     inkscape:cx="-44.177749"
     inkscape:cy="3.4324958"
     inkscape:document-units="mm"
     inkscape:current-layer="layer1"
     showgrid="true"
     units="px"
     showguides="true"
     inkscape:window-width="1920"
     inkscape:window-height="1017"
     inkscape:window-x="1912"
     inkscape:window-y="-8"
     inkscape:window-maximized="1"
     viewbox-width="4.23"
     inkscape:pagecheckerboard="false"
     borderlayer="false"
     gridtolerance="10">
    <inkscape:grid
       type="xygrid"
       id="grid815"
       dotted="false" />
  </sodipodi:namedview>
  <metadata
     id="metadata5">
    <rdf:RDF>
      <cc:Work
         rdf:about="">
        <dc:format>image/svg+xml</dc:format>
        <dc:type
           rdf:resource="http://purl.org/dc/dcmitype/StillImage" />
        <dc:title />
      </cc:Work>
    </rdf:RDF>
  </metadata>
  <g
     inkscape:label="Layer 1"
     inkscape:groupmode="layer"
     id="layer1"
     transform="translate(0,-292.76664)">
    <path
       style="opacity:1;fill:#c4c4c4;fill-opacity:1;stroke:none;stroke-width:0.00835217;stroke-opacity:1"
       d="m 1.392269,296.09459 0.0861,0.0915 0.0453,-0.0412 c 0.0502,-0.0457 0.10176,-0.0933 0.2625,-0.24272 0.0887,-0.0824 0.71099,-0.65477 1.0391,-0.95563 l 0.0774,-0.071 -0.0989,-0.0877 c -0.0936,-0.083 -0.92282,-0.83307 -1.17568,-1.0635 -0.1148,-0.10461 -0.15348,-0.13646 -0.15783,-0.12993 -10e-4,0.002 -0.0395,0.0441 -0.0852,0.094 l -0.083,0.0908 0.0301,0.0262 c 0.0166,0.0144 0.28712,0.25879 0.6012,0.5431 0.31409,0.28431 0.57415,0.51966 0.57791,0.523 0.005,0.005 -1.00318,0.94434 -1.1685,1.08866 -0.0203,0.0177 -0.0368,0.0346 -0.0367,0.0376 10e-5,0.003 0.0389,0.0466 0.0862,0.0969 z"
       id="path1423"
       inkscape:connector-curvature="0"
       inkscape:export-filename="D:\Development\fumingcube\icons\dark\16x16\path1423.png"
       inkscape:export-xdpi="96"
       inkscape:export-ydpi="96" />
  </g>
</svg>
