<?xml version="1.0" encoding="UTF-8" standalone="no"?>
<!-- Created with Inkscape (http://www.inkscape.org/) -->

<svg
   xmlns:dc="http://purl.org/dc/elements/1.1/"
   xmlns:cc="http://creativecommons.org/ns#"
   xmlns:rdf="http://www.w3.org/1999/02/22-rdf-syntax-ns#"
   xmlns:svg="http://www.w3.org/2000/svg"
   xmlns="http://www.w3.org/2000/svg"
   xmlns:sodipodi="http://sodipodi.sourceforge.net/DTD/sodipodi-0.dtd"
   xmlns:inkscape="http://www.inkscape.org/namespaces/inkscape"
   width="16"
   height="16"
   viewBox="0 0 4.2333333 4.2333335"
   version="1.1"
   id="svg8"
   sodipodi:docname="structure.svg"
   inkscape:version="0.92.4 (5da689c313, 2019-01-14)"
   inkscape:export-filename="C:\Home\Development\fumingcube\icons\dark\16x16\structure.png"
   inkscape:export-xdpi="96"
   inkscape:export-ydpi="96">
  <defs
     id="defs2">
    <marker
       inkscape:isstock="true"
       style="overflow:visible;"
       id="marker1707"
       refX="0.0"
       refY="0.0"
       orient="auto"
       inkscape:stockid="Arrow2Send">
      <path
         transform="scale(0.3) rotate(180) translate(-2.3,0)"
         d="M 8.7185878,4.0337352 L -2.2072895,0.016013256 L 8.7185884,-4.0017078 C 6.9730900,-1.6296469 6.9831476,1.6157441 8.7185878,4.0337352 z "
         style="fill-rule:evenodd;stroke-width:0.625;stroke-linejoin:round;stroke:#404040;stroke-opacity:1;fill:#404040;fill-opacity:1"
         id="path1705" />
    </marker>
    <marker
       inkscape:stockid="Arrow1Send"
       orient="auto"
       refY="0.0"
       refX="0.0"
       id="Arrow1Send"
       style="overflow:visible;"
       inkscape:isstock="true">
      <path
         id="path1444"
         d="M 0.0,0.0 L 5.0,-5.0 L -12.5,0.0 L 5.0,5.0 L 0.0,0.0 z "
         style="fill-rule:evenodd;stroke:#000000;stroke-width:1pt;stroke-opacity:1;fill:#000000;fill-opacity:1"
         transform="scale(0.2) rotate(180) translate(6,0)" />
    </marker>
    <marker
       inkscape:stockid="Arrow2Mend"
       orient="auto"
       refY="0.0"
       refX="0.0"
       id="Arrow2Mend"
       style="overflow:visible;"
       inkscape:isstock="true">
      <path
         id="path1456"
         style="fill-rule:evenodd;stroke-width:0.625;stroke-linejoin:round;stroke:#000000;stroke-opacity:1;fill:#000000;fill-opacity:1"
         d="M 8.7185878,4.0337352 L -2.2072895,0.016013256 L 8.7185884,-4.0017078 C 6.9730900,-1.6296469 6.9831476,1.6157441 8.7185878,4.0337352 z "
         transform="scale(0.6) rotate(180) translate(0,0)" />
    </marker>
    <marker
       inkscape:isstock="true"
       style="overflow:visible"
       id="marker1707-6"
       refX="0"
       refY="0"
       orient="auto"
       inkscape:stockid="Arrow2Send">
      <path
         inkscape:connector-curvature="0"
         transform="matrix(-0.3,0,0,-0.3,0.69,0)"
         d="M 8.7185878,4.0337352 -2.2072895,0.01601326 8.7185884,-4.0017078 c -1.7454984,2.3720609 -1.7354408,5.6174519 -6e-7,8.035443 z"
         style="fill:#000000;fill-opacity:1;fill-rule:evenodd;stroke:#000000;stroke-width:0.625;stroke-linejoin:round;stroke-opacity:1"
         id="path1705-9" />
    </marker>
    <marker
       inkscape:isstock="true"
       style="overflow:visible"
       id="marker1707-9"
       refX="0"
       refY="0"
       orient="auto"
       inkscape:stockid="Arrow2Send">
      <path
         inkscape:connector-curvature="0"
         transform="matrix(-0.3,0,0,-0.3,0.69,0)"
         d="M 8.7185878,4.0337352 -2.2072895,0.01601326 8.7185884,-4.0017078 c -1.7454984,2.3720609 -1.7354408,5.6174519 -6e-7,8.035443 z"
         style="fill:#404040;fill-opacity:1;fill-rule:evenodd;stroke:#404040;stroke-width:0.625;stroke-linejoin:round;stroke-opacity:1"
         id="path1705-8" />
    </marker>
    <marker
       inkscape:isstock="true"
       style="overflow:visible"
       id="marker1707-8"
       refX="0"
       refY="0"
       orient="auto"
       inkscape:stockid="Arrow2Send">
      <path
         inkscape:connector-curvature="0"
         transform="matrix(-0.3,0,0,-0.3,0.69,0)"
         d="M 8.7185878,4.0337352 -2.2072895,0.01601326 8.7185884,-4.0017078 c -1.7454984,2.3720609 -1.7354408,5.6174519 -6e-7,8.035443 z"
         style="fill:#404040;fill-opacity:1;fill-rule:evenodd;stroke:#404040;stroke-width:0.625;stroke-linejoin:round;stroke-opacity:1"
         id="path1705-7" />
    </marker>
    <pattern
       y="0"
       x="0"
       height="6"
       width="6"
       patternUnits="userSpaceOnUse"
       id="EMFhbasepattern" />
  </defs>
  <sodipodi:namedview
     id="base"
     pagecolor="#ffffff"
     bordercolor="#666666"
     borderopacity="1.0"
     inkscape:pageopacity="0.0"
     inkscape:pageshadow="2"
     inkscape:zoom="22.4"
     inkscape:cx="-11.919653"
     inkscape:cy="16.206663"
     inkscape:document-units="mm"
     inkscape:current-layer="layer1"
     showgrid="true"
     units="px"
     showguides="true"
     inkscape:window-width="1920"
     inkscape:window-height="1017"
     inkscape:window-x="-8"
     inkscape:window-y="-8"
     inkscape:window-maximized="1"
     viewbox-width="4.23"
     inkscape:pagecheckerboard="false"
     borderlayer="false"
     gridtolerance="10">
    <inkscape:grid
       type="xygrid"
       id="grid815"
       dotted="false" />
  </sodipodi:namedview>
  <metadata
     id="metadata5">
    <rdf:RDF>
      <cc:Work
         rdf:about="">
        <dc:format>image/svg+xml</dc:format>
        <dc:type
           rdf:resource="http://purl.org/dc/dcmitype/StillImage" />
        <dc:title />
      </cc:Work>
    </rdf:RDF>
  </metadata>
  <g
     inkscape:label="Layer 1"
     inkscape:groupmode="layer"
     id="layer1"
     transform="translate(0,-292.76664)">
    <path
       id="path1783"
       d="m 0.68296289,293.76535 v 1.52429"
       style="fill:none;stroke:#c4c4c4;stroke-width:0.2;stroke-linecap:round;stroke-linejoin:miter;stroke-miterlimit:2;stroke-dasharray:none;stroke-opacity:1"
       inkscape:connector-curvature="0" />
    <path
       id="path1785"
       d="m 0.95604371,293.92424 v 1.20651"
       style="fill:none;stroke:#c4c4c4;stroke-width:0.121;stroke-linecap:round;stroke-linejoin:miter;stroke-miterlimit:2;stroke-dasharray:none;stroke-opacity:1"
       inkscape:connector-curvature="0" />
    <path
       id="path1787"
       d="m 0.67685163,295.28356 0.93226697,0.53243"
       style="fill:none;stroke:#c4c4c4;stroke-width:0.2;stroke-linecap:round;stroke-linejoin:miter;stroke-miterlimit:2;stroke-dasharray:none;stroke-opacity:1"
       inkscape:connector-curvature="0" />
    <path
       id="path1793"
       d="m 3.3243996,294.77607 v -1.01072"
       style="fill:none;stroke:#c4c4c4;stroke-width:0.2;stroke-linecap:round;stroke-linejoin:miter;stroke-miterlimit:2;stroke-dasharray:none;stroke-opacity:1"
       inkscape:connector-curvature="0" />
    <path
       id="path1795"
       d="M 3.3243996,293.76535 2.0036812,293.00072"
       style="fill:none;stroke:#c4c4c4;stroke-width:0.2;stroke-linecap:round;stroke-linejoin:miter;stroke-miterlimit:2;stroke-dasharray:none;stroke-opacity:1"
       inkscape:connector-curvature="0" />
    <path
       id="path1797"
       d="M 3.0513187,293.92424 2.0036812,293.31849"
       style="fill:none;stroke:#c4c4c4;stroke-width:0.121;stroke-linecap:round;stroke-linejoin:miter;stroke-miterlimit:2;stroke-dasharray:none;stroke-opacity:1"
       inkscape:connector-curvature="0" />
    <path
       id="path1799"
       d="m 2.0036812,293.00072 -1.32071831,0.76463"
       style="fill:none;stroke:#c4c4c4;stroke-width:0.2;stroke-linecap:round;stroke-linejoin:miter;stroke-miterlimit:2;stroke-dasharray:none;stroke-opacity:1"
       inkscape:connector-curvature="0" />
    <path
       inkscape:connector-curvature="0"
       style="opacity:1;fill:#c4c4c4;fill-opacity:1;stroke:none;stroke-width:0.00569365;stroke-linecap:round;stroke-linejoin:miter;stroke-miterlimit:4;stroke-dasharray:none;stroke-opacity:1;paint-order:stroke fill markers"
       d="m 2.5781619,294.72009 c -0.1663604,0 -0.3212204,0.0471 -0.4600534,0.13999 -0.051626,0.0346 -0.1499794,0.12826 -0.1874682,0.17833 -0.1402681,0.18729 -0.19383,0.41978 -0.1480752,0.64434 0.068591,0.33668 0.3515366,0.59805 0.6943006,0.64121 0.064521,0.008 0.1979058,0.002 0.2620334,-0.0109 0.097735,-0.0204 0.1830839,-0.0535 0.2630886,-0.10237 0.019509,-0.0121 0.041662,-0.026 0.048186,-0.0302 l 0.6943007,0.69431 0.180082,-0.18008 -0.6964111,-0.69642 c 0.011846,-0.01 0.056717,-0.0754 0.080545,-0.12275 0.02725,-0.0542 0.057627,-0.14724 0.069642,-0.21314 0.013086,-0.0718 0.012637,-0.21109 -7.011e-4,-0.27892 -0.03179,-0.16162 -0.1014355,-0.29766 -0.211033,-0.41186 -0.1594921,-0.16616 -0.3594717,-0.25144 -0.588432,-0.25144 z m 0.0095,0.16005 c 0.1672909,0.002 0.3336329,0.0687 0.4593498,0.19907 0.1142422,0.11846 0.1718693,0.25314 0.1779717,0.41573 0.00332,0.0881 -0.00386,0.14982 -0.024972,0.21666 -0.080415,0.25456 -0.2976206,0.42776 -0.5676805,0.45303 -0.034393,0.004 -0.063856,0.006 -0.06542,0.005 -0.00156,-5.7e-4 -0.015671,-0.002 -0.031303,-0.002 -0.176452,-0.0109 -0.3497532,-0.0998 -0.4597015,-0.23425 -0.069066,-0.0843 -0.1124393,-0.17552 -0.1354132,-0.28491 -0.016423,-0.0782 -0.011943,-0.21271 0.0095,-0.28981 0.031202,-0.11229 0.088572,-0.20971 0.1719924,-0.29123 0.1298905,-0.12691 0.29839,-0.1887 0.4656809,-0.18641 z m 0.5342667,1.1765 -0.00915,0.008 0.00175,-0.002 c 0.00417,-0.005 0.00359,-0.002 0.00738,-0.006 z"
       id="path838" />
  </g>
</svg>
