<?xml version="1.0" encoding="UTF-8" standalone="no"?>
<!-- Created with Inkscape (http://www.inkscape.org/) -->

<svg
   xmlns:dc="http://purl.org/dc/elements/1.1/"
   xmlns:cc="http://creativecommons.org/ns#"
   xmlns:rdf="http://www.w3.org/1999/02/22-rdf-syntax-ns#"
   xmlns:svg="http://www.w3.org/2000/svg"
   xmlns="http://www.w3.org/2000/svg"
   xmlns:sodipodi="http://sodipodi.sourceforge.net/DTD/sodipodi-0.dtd"
   xmlns:inkscape="http://www.inkscape.org/namespaces/inkscape"
   width="16"
   height="16"
   viewBox="0 0 4.2333333 4.2333335"
   version="1.1"
   id="svg8"
   sodipodi:docname="unlock.svg"
   inkscape:version="0.92.4 (5da689c313, 2019-01-14)"
   inkscape:export-filename="C:\Home\Development\fumingcube\icons\dark\16x16\unlock.png"
   inkscape:export-xdpi="96"
   inkscape:export-ydpi="96">
  <defs
     id="defs2" />
  <sodipodi:namedview
     id="base"
     pagecolor="#ffffff"
     bordercolor="#666666"
     borderopacity="1.0"
     inkscape:pageopacity="0.0"
     inkscape:pageshadow="2"
     inkscape:zoom="22.4"
     inkscape:cx="10.269066"
     inkscape:cy="14.366099"
     inkscape:document-units="mm"
     inkscape:current-layer="layer1"
     showgrid="true"
     units="px"
     showguides="false"
     inkscape:window-width="1920"
     inkscape:window-height="1017"
     inkscape:window-x="-8"
     inkscape:window-y="-8"
     inkscape:window-maximized="1"
     viewbox-width="4.23"
     inkscape:pagecheckerboard="false"
     borderlayer="false"
     gridtolerance="10">
    <inkscape:grid
       type="xygrid"
       id="grid815"
       dotted="false" />
  </sodipodi:namedview>
  <metadata
     id="metadata5">
    <rdf:RDF>
      <cc:Work
         rdf:about="">
        <dc:format>image/svg+xml</dc:format>
        <dc:type
           rdf:resource="http://purl.org/dc/dcmitype/StillImage" />
        <dc:title></dc:title>
      </cc:Work>
    </rdf:RDF>
  </metadata>
  <g
     inkscape:label="Layer 1"
     inkscape:groupmode="layer"
     id="layer1"
     transform="translate(0,-292.76664)">
    <path
       style="opacity:1;fill:#c4c4c4;fill-opacity:1;stroke:none;stroke-width:0.02235658;stroke-linecap:round;stroke-linejoin:miter;stroke-miterlimit:4;stroke-dasharray:none;stroke-opacity:1;paint-order:stroke fill markers"
       d="M 7.7597657,3.0117188 C 7.1887975,3.0188488 6.6422828,3.036919 6.5175782,3.060547 6.09459,3.1406904 5.7544053,3.2903363 5.4472657,3.5332032 4.9620475,3.9168837 4.5970992,4.6535702 4.5625001,5.3183595 4.5584514,5.3961507 4.521065,6.4839592 4.515625,7 H 4 v 6 h 8 V 7 H 11.478516 10.496094 8.4941406 5.4921875 l 0.029297,-1.6816405 0.060547,-0.21875 C 5.7455923,4.5074232 6.0769315,4.1636371 6.5996095,4.0410157 6.7559705,4.0043287 6.8908541,3.9997948 8.0000001,4.0000001 l 1.2265625,0.00195 0.2148437,0.058594 c 0.5418023,0.1492736 0.8590027,0.4224619 1.0175777,0.8769531 l 0.0098,0.027344 h 0.996094 C 11.264074,3.8589153 10.411381,3.1393559 9.1445313,3.0273438 8.9258287,3.0080068 8.3307339,3.0045854 7.7597657,3.0117188 Z"
       transform="matrix(0.26458333,0,0,0.26458333,0,292.76664)"
       id="path858"
       inkscape:connector-curvature="0"
       sodipodi:nodetypes="ccssccccccccccccccccccsc" />
  </g>
</svg>
